<?xml version="1.0" encoding="utf-8"?>
<!-- Generator: Adobe Illustrator 18.1.1, SVG Export Plug-In . SVG Version: 6.00 Build 0)  -->
<!DOCTYPE svg PUBLIC "-//W3C//DTD SVG 1.1//EN" "http://www.w3.org/Graphics/SVG/1.1/DTD/svg11.dtd">
<svg version="1.1" id="Layer_1" xmlns="http://www.w3.org/2000/svg" xmlns:xlink="http://www.w3.org/1999/xlink" x="0px" y="0px"
	 viewBox="0 0 792 612" enable-background="new 0 0 792 612" xml:space="preserve">
<g>
	<path fill="#512200" stroke="#512200" stroke-miterlimit="10" d="M524.8,276.9c4.3,15.9,6.7,33.7,6.7,51.4c0,1.8,0,4.3,0,6.1
		l20.8,8l17.1-14.7l13.5,15.9l-26.3,21.4l-26.9-11c-3.1,23.9-10.4,46.5-20.8,65.5l3.7-4.9l20.2,11.6l19.6-11.6l11,17.7l-28.8,17.7
		l-31.8-19c-25.1,38.6-63.6,63.6-107.1,63.6s-82-25.1-107.1-63.6l-31.2,18.4l-28.8-17.7l11-17.7l19.6,11.6l20.2-11.6l1.2,1.8
		c-9.8-18.4-16.5-39.8-19-62.4l-26.3,10.4L209,342.4l13.5-15.9l17.1,14.7l20.2-8c0-2.4,0-4.3,0-6.7c0-17.7,2.4-34.9,6.7-51.4
		l-34.3-1.2l-14.7-30l18.4-9.2l9.8,20.2l23.3,1.2l0.6,6.7c14.1-41.6,41.6-75.3,75.9-91.8c0.6-12.9,11-23.3,24.5-23.3h56.9
		c13.5,0,24.5,11,24.5,24.5c0,0.6,0,1.2,0,1.8c32.4,17.7,58.1,50.8,71,91.2l0.6-9.2l23.3-1.2l9.8-20.2l18.4,9.2l-14.7,30
		L524.8,276.9z"/>
	<polygon fill="#512200" stroke="#512200" stroke-miterlimit="10" points="463.6,128.2 461.2,135.6 456.9,137.4 448.3,139.8 
		441,144.1 430.6,149.6 430.6,144.1 442.2,136.2 450.8,133.7 458.1,128.2 462.4,120.3 470.4,117.2 468.5,125.2 	"/>
	<polygon fill="#512200" stroke="#512200" stroke-miterlimit="10" points="346.7,139.8 338.2,137.4 333.9,135.6 331.4,128.2 
		326.5,125.2 324.7,117.2 332.7,120.3 336.9,128.2 344.3,133.7 352.9,136.2 364.5,144.1 364.5,149.6 354.1,144.1 	"/>
</g>
</svg>
