<svg xmlns="http://www.w3.org/2000/svg" viewBox="0 0 792 612" enable-background="new 0 0 792 612"><g fill="#512200" stroke="#512200" stroke-miterlimit="10"><path d="M524.8 276.9c4.3 15.9 6.7 33.7 6.7 51.4v6.1l20.8 8 17.1-14.7 13.5 15.9-26.3 21.4-26.9-11c-3.1 23.9-10.4 46.5-20.8 65.5l3.7-4.9 20.2 11.6 19.6-11.6 11 17.7-28.8 17.7-31.8-19c-25.1 38.6-63.6 63.6-107.1 63.6s-82-25.1-107.1-63.6l-31.2 18.4-28.8-17.7 11-17.7 19.6 11.6 20.2-11.6 1.2 1.8c-9.8-18.4-16.5-39.8-19-62.4l-26.3 10.4-26.3-21.4 13.5-15.9 17.1 14.7 20.2-8v-6.7c0-17.7 2.4-34.9 6.7-51.4l-34.3-1.2-14.7-30 18.4-9.2 9.8 20.2 23.3 1.2.6 6.7c14.1-41.6 41.6-75.3 75.9-91.8.6-12.9 11-23.3 24.5-23.3h56.9c13.5 0 24.5 11 24.5 24.5v1.8c32.4 17.7 58.1 50.8 71 91.2l.6-9.2 23.3-1.2 9.8-20.2 18.4 9.2-14.7 30-35 3.1zM463.6 128.2l-2.4 7.4-4.3 1.8-8.6 2.4-7.3 4.3-10.4 5.5v-5.5l11.6-7.9 8.6-2.5 7.3-5.5 4.3-7.9 8-3.1-1.9 8zM346.7 139.8l-8.5-2.4-4.3-1.8-2.5-7.4-4.9-3-1.8-8 8 3.1 4.2 7.9 7.4 5.5 8.6 2.5 11.6 7.9v5.5l-10.4-5.5z"/></g></svg>